<?xml version="1.0" encoding="UTF-8" standalone="no"?>
<!-- Created with Inkscape (http://www.inkscape.org/) -->

<svg
   xmlns:dc="http://purl.org/dc/elements/1.1/"
   xmlns:cc="http://creativecommons.org/ns#"
   xmlns:rdf="http://www.w3.org/1999/02/22-rdf-syntax-ns#"
   xmlns:svg="http://www.w3.org/2000/svg"
   xmlns="http://www.w3.org/2000/svg"
   xmlns:sodipodi="http://sodipodi.sourceforge.net/DTD/sodipodi-0.dtd"
   xmlns:inkscape="http://www.inkscape.org/namespaces/inkscape"
   width="744.09448"
   height="1052.3622"
   id="svg3017"
   version="1.1"
   inkscape:version="0.48.5 r10040"
   sodipodi:docname="geek_etiquetado.svg">
  <title
     id="title3991">Tagged Geek</title>
  <defs
     id="defs3" />
  <sodipodi:namedview
     inkscape:document-units="mm"
     id="base"
     pagecolor="#ffffff"
     bordercolor="#666666"
     borderopacity="1.0"
     inkscape:pageopacity="0.0"
     inkscape:pageshadow="2"
     inkscape:zoom="0.52168351"
     inkscape:cx="330.83451"
     inkscape:cy="526.18109"
     inkscape:current-layer="layer1"
     showgrid="false"
     units="mm"
     inkscape:window-width="1366"
     inkscape:window-height="724"
     inkscape:window-x="0"
     inkscape:window-y="22"
     inkscape:window-maximized="1" />
  <metadata
     id="metadata4">
    <rdf:RDF>
      <cc:Work
         rdf:about="">
        <dc:format>image/svg+xml</dc:format>
        <dc:type
           rdf:resource="http://purl.org/dc/dcmitype/StillImage" />
        <dc:title>Tagged Geek</dc:title>
        <cc:license
           rdf:resource="http://creativecommons.org/licenses/publicdomain/" />
        <dc:creator>
          <cc:Agent>
            <dc:title>Luis Alejandro Bernal Romero (Aztlek)</dc:title>
          </cc:Agent>
        </dc:creator>
        <dc:rights>
          <cc:Agent>
            <dc:title>Public domain</dc:title>
          </cc:Agent>
        </dc:rights>
        <dc:subject>
          <rdf:Bag>
            <rdf:li>geek</rdf:li>
            <rdf:li>tagged</rdf:li>
            <rdf:li>poster</rdf:li>
            <rdf:li>remix+215224</rdf:li>
          </rdf:Bag>
        </dc:subject>
        <dc:description>Tagged Geek</dc:description>
      </cc:Work>
      <cc:License
         rdf:about="http://creativecommons.org/licenses/publicdomain/">
        <cc:permits
           rdf:resource="http://creativecommons.org/ns#Reproduction" />
        <cc:permits
           rdf:resource="http://creativecommons.org/ns#Distribution" />
        <cc:permits
           rdf:resource="http://creativecommons.org/ns#DerivativeWorks" />
      </cc:License>
    </rdf:RDF>
  </metadata>
  <g
     inkscape:label="Layer 1"
     inkscape:groupmode="layer"
     id="layer1"
     transform="translate(0,-3.6171875e-6)">
    <rect
       style="fill:#006680;fill-opacity:1;fill-rule:nonzero;stroke:#000000;stroke-width:0.22328305;stroke-linecap:round;stroke-linejoin:miter;stroke-miterlimit:4;stroke-opacity:1;stroke-dasharray:none;stroke-dashoffset:0"
       id="rect3896"
       width="743.87115"
       height="1052.1389"
       x="0.11166382"
       y="0.11163691" />
    <text
       sodipodi:linespacing="125%"
       id="text3060"
       y="926.34222"
       x="371.94177"
       style="font-size:144px;font-style:normal;font-variant:normal;font-weight:bold;font-stretch:normal;text-align:center;line-height:125%;letter-spacing:0px;word-spacing:0px;text-anchor:middle;fill:#ffffff;fill-opacity:1;stroke:none;font-family:Liberation Sans;-inkscape-font-specification:Sans Bold"
       xml:space="preserve"><tspan
         y="926.34222"
         x="371.94177"
         id="tspan3062"
         sodipodi:role="line">&lt;/geek&gt;</tspan></text>
    <path
       style="fill:#ffffff;fill-opacity:1;fill-rule:evenodd;stroke:none;display:inline"
       d="m 376.01142,298.46492 c -23.93697,0.61568 -34.66751,21.8496 -35.5,36.75 -0.14688,2.62902 1.69856,7.69683 4.6875,10.6875 1.49447,1.49533 3.76134,4.99927 5.78125,5.65625 2.01991,0.65698 4.77648,3.70505 6.1875,4.84375 2.82207,2.2774 3.90529,2.2241 5.40625,5.125 1.50096,2.9009 1.94904,10.87846 4.75,14.3125 1.36943,1.67897 4.51112,-2.33304 6.78125,-0.59375 5.83116,4.46761 3.91366,1.78454 5.40625,3.46875 2.98518,3.36842 2.50348,2.34846 6.625,3.28125 7.47239,0.72782 9.35964,-8.96144 17.0625,-11.15625 1.46981,1.38316 2.35273,2.8964 2.9375,4.46875 -0.45435,9.1838 -3.82294,20.82722 0,25.875 7.24044,36.76351 3.18443,24.49103 6.5,47.9375 -17.6063,3.81933 -30.35179,11.18717 -47.09375,2.28125 -13.29757,-7.07453 -12.1676,-17.69026 -28.03125,-8.1875 -2.84523,1.70527 -8.70649,3.176 -5.84375,7 4.57851,0.52559 17.46935,-1.42033 17.53125,7.03125 -17.28742,0.0596 -22.46245,-2.76773 -42.0625,-2.34375 -2.11523,2.16663 -0.18991,8.36966 -3.5,9.34375 -23.09235,2.46097 -28.9775,-12.29386 -42.0625,-19.84375 0.76854,-8.18645 -1.52224,-19.47466 1.1875,-25.71875 2.96086,4.82732 2.43555,13.15363 5.84375,17.53125 6.31883,1.25559 6.95357,-3.17419 12.84375,-2.34375 -9.15237,-45.0564 -18.51633,-92.63784 -31.53125,-131.96875 -2.37686,-1.5254 -7.75955,1.76559 -11.6875,2.34375 9.96646,41.77085 16.8075,86.02029 15.1875,137.8125 -2.96319,9.49343 -15.32848,9.61881 -16.375,21.03125 -23.35748,-0.77672 -4.40246,0.63944 -27.8125,-0.1875 l 0,18.6875 17.65625,0 c -0.0208,66.97258 -0.80212,157.83388 -0.0312,226.75 5.69395,-0.53611 13.05563,0 18.84375,0 0,-58.50465 -0.002,-163.96695 0.6875,-225.40625 l 135.5,0 c 4.81563,0.92155 2.18671,-5.60671 7,-4.6875 9.43503,5.36341 25.92683,3.68565 33.875,10.53125 l 0,9.34375 c -27.86708,8.47027 -55.33595,19.21485 -80.59375,30.375 -7.56741,3.34396 -20.79718,7.59947 -24.53125,12.84375 -5.07608,7.13526 -2.0949,15.66848 -3.5,25.6875 -7.02356,27.87329 -32.125,92.15625 -32.125,92.15625 l 4.96875,2.625 4.96875,2.625 c 0,0 -11.65521,10.08663 -23.0625,13.90625 -10.26235,3.43626 -21.45982,13.01693 -13.21875,13.59375 15.72216,1.10047 35.62425,0.92868 50.5625,-4.84375 1.61766,3.0543 -1.35768,3.52918 2,4.84375 3.35768,1.31458 16.25504,0.13666 21.0625,0 2.39212,-10.03053 -1.44036,-13.57297 -1.125,-22.125 0.41113,-11.07256 7.37211,-23.1119 10.5,-35.03125 3.26453,-12.43443 5.9142,-24.34413 10.53125,-35.03125 l -1.0938,-5.71875 c 4.34842,21.42212 8.20962,42.95113 12.15625,64.4375 7.81971,2.62798 15.20048,1.12481 23.09375,4.46875 0.14834,3.29842 2.46873,6.22088 2.34375,9.5625 -13.54052,19.04409 -23.53125,21.53125 -23.53125,21.53125 9.99216,-2.47497 -5.37455,0.80919 -4.65625,7.5625 0.71832,6.75333 24.65625,-2.34375 24.65625,-2.34375 4.40332,-4.46874 9.3309,-4.01472 13.6875,-8.90625 1.95639,4.15745 0.98556,3.34126 4.03125,2.5625 3.04569,-0.77875 10.1299,-1.54319 12.59375,-2.84375 1.31962,-13.64133 -0.81445,-20.91494 -6.09375,-32.21875 l 3.3125,-0.0625 c -9.13474,-29.87924 -18.44207,-60.70361 -25.5625,-91.71875 0,0 45.94435,-3.45245 59.625,-0.78125 -1.5668,22.96483 0,55.017 0,80 -1.32784,24.16242 0.56418,40.39949 -11.125,41.78125 -9.86948,1.16665 -33.41274,9.29544 -42.53125,11.5625 0.3282,3.95598 0.56645,4.74545 -0.125,9.71875 l 11.28125,0 c 3.28299,-3e-5 2.7515,-3.33743 5.6875,-7.1875 6.81179,-2.80613 31.13946,-4.95984 42.84375,-5.71875 18.846,-3.04144 38.25213,2.73915 67.03125,5.78125 3.10335,0.97878 5.625,7.125 5.625,7.125 l 11.78125,-0.125 c 0,0 0.88777,-4.94862 0.5625,-9.46875 -19.76709,-5.53861 -44.93755,-5.62942 -64.21875,-11.65625 -12.16094,-0.0227 -12.1875,-7.98652 -12.1875,-39.5625 l 0,-35.96875 c 0.73233,-14.06377 0.0169,-30.44337 0.59375,-44.53125 12.355,-0.10278 27.03952,4.63607 36.21875,-1.15625 12.53944,-7.91271 11.01979,-9.65245 13.625,-28.65625 2.60519,-19.00379 6.54363,-58.55317 8.5625,-77.65625 0.70313,-6.64703 4.64081,-37.35531 5.59375,-44.59375 -1.12044,-0.16098 -2.29736,-0.4976 -4.4375,-0.9375 -5.80091,31.5452 -8.66593,73.62138 -13.21875,106.59375 -2.64901,19.19243 -4.58305,41.86878 -24.15625,37.0625 13.87925,-14.89655 19.7058,-42.44355 17.5625,-71.65625 2.32582,-27.23591 -3.56694,-40.08041 -8.3125,-69.78125 -1.63517,-10.24211 -18.82206,-37.72794 -24.28125,-44.25 -3.19713,-3.82301 -17.75642,-15.06461 -23.78125,-19.625 l 0.6875,-0.875 c -8.59979,-2.55236 -15.49289,-6.51539 -22.65625,-9.65625 -2.98184,-20.57878 -17.69093,-33.92518 -29.6875,-41.4375 -5.35852,-1.47158 -10.25473,-2.05152 -14.6875,-1.9375 z"
       id="path4118"
       inkscape:connector-curvature="0" />
    <text
       xml:space="preserve"
       style="font-size:144px;font-style:normal;font-variant:normal;font-weight:bold;font-stretch:normal;text-align:center;line-height:125%;letter-spacing:0px;word-spacing:0px;text-anchor:middle;fill:#ffffff;fill-opacity:1;stroke:none;font-family:Liberation Sans;-inkscape-font-specification:Sans Bold"
       x="371.94177"
       y="199.84811"
       id="text3968"
       sodipodi:linespacing="125%"><tspan
         sodipodi:role="line"
         id="tspan3970"
         x="371.94177"
         y="199.84811">&lt;geek&gt;</tspan></text>
  </g>
</svg>
